<svg width="24" height="25" viewBox="0 0 24 25" fill="none" xmlns="http://www.w3.org/2000/svg">
<g id="Group">
<path id="Vector" d="M21 20.0293C21 20.2945 20.8946 20.5489 20.7071 20.7364C20.5196 20.924 20.2652 21.0293 20 21.0293H4C3.73478 21.0293 3.48043 20.924 3.29289 20.7364C3.10536 20.5489 3 20.2945 3 20.0293V9.51932C2.99989 9.36694 3.03462 9.21654 3.10152 9.07962C3.16841 8.94271 3.26572 8.82289 3.386 8.72932L11.386 2.50732C11.5615 2.37077 11.7776 2.29663 12 2.29663C12.2224 2.29663 12.4385 2.37077 12.614 2.50732L20.614 8.72932C20.7343 8.82289 20.8316 8.94271 20.8985 9.07962C20.9654 9.21654 21.0001 9.36694 21 9.51932V20.0293Z" fill="#CFD6E0"/>
</g>
</svg>
