<svg width="25" height="25" viewBox="0 0 25 25" fill="none" xmlns="http://www.w3.org/2000/svg">
<g id="mdi:place-outline">
<path id="Vector" d="M12.0353 6.5293C12.6983 6.5293 13.3342 6.79269 13.803 7.26153C14.2719 7.73037 14.5353 8.36626 14.5353 9.0293C14.5353 9.3576 14.4706 9.68269 14.345 9.98601C14.2193 10.2893 14.0352 10.5649 13.803 10.7971C13.5709 11.0292 13.2953 11.2134 12.992 11.339C12.6887 11.4646 12.3636 11.5293 12.0353 11.5293C11.3722 11.5293 10.7364 11.2659 10.2675 10.7971C9.79867 10.3282 9.53528 9.69234 9.53528 9.0293C9.53528 8.36626 9.79867 7.73037 10.2675 7.26153C10.7364 6.79269 11.3722 6.5293 12.0353 6.5293ZM12.0353 2.0293C13.8918 2.0293 15.6723 2.76679 16.985 4.07955C18.2978 5.3923 19.0353 7.17278 19.0353 9.0293C19.0353 14.2793 12.0353 22.0293 12.0353 22.0293C12.0353 22.0293 5.03528 14.2793 5.03528 9.0293C5.03528 7.17278 5.77278 5.3923 7.08553 4.07955C8.39829 2.76679 10.1788 2.0293 12.0353 2.0293ZM12.0353 4.0293C10.7092 4.0293 9.43743 4.55608 8.49974 5.49376C7.56206 6.43145 7.03528 7.70321 7.03528 9.0293C7.03528 10.0293 7.03528 12.0293 12.0353 18.7393C17.0353 12.0293 17.0353 10.0293 17.0353 9.0293C17.0353 7.70321 16.5085 6.43145 15.5708 5.49376C14.6331 4.55608 13.3614 4.0293 12.0353 4.0293Z" fill="#5965AF"/>
</g>
</svg>
