<svg width="25" height="24" viewBox="0 0 25 24" fill="none" xmlns="http://www.w3.org/2000/svg">
<g id="Frame" clip-path="url(#clip0_12_1510)">
<path id="Vector" d="M12.5 22C6.97715 22 2.5 17.5228 2.5 12C2.5 6.47715 6.97715 2 12.5 2C18.0228 2 22.5 6.47715 22.5 12C22.5 17.5228 18.0228 22 12.5 22ZM12.5 20C16.9183 20 20.5 16.4183 20.5 12C20.5 7.58172 16.9183 4 12.5 4C8.08172 4 4.5 7.58172 4.5 12C4.5 16.4183 8.08172 20 12.5 20ZM7.5 12H9.5C9.5 13.6569 10.8431 15 12.5 15C14.1569 15 15.5 13.6569 15.5 12H17.5C17.5 14.7614 15.2614 17 12.5 17C9.73858 17 7.5 14.7614 7.5 12Z" fill="#00D7F4"/>
<path id="Star 1" d="M19.5 1.43223L20.7098 4.7016L20.7337 4.76629L20.7984 4.79022L24.0678 6L20.7984 7.20978L20.7337 7.23371L20.7098 7.2984L19.5 10.5678L18.2902 7.2984L18.2663 7.23371L18.2016 7.20978L14.9322 6L18.2016 4.79022L18.2663 4.76629L18.2902 4.7016L19.5 1.43223Z" fill="#00D7F4" stroke="white" stroke-width="0.3"/>
</g>
<defs>
<clipPath id="clip0_12_1510">
<rect width="24" height="24" fill="white" transform="translate(0.5)"/>
</clipPath>
</defs>
</svg>
