<svg width="25" height="25" viewBox="0 0 25 25" fill="none" xmlns="http://www.w3.org/2000/svg">
<g id="ri:more-fill">
<path id="Vector" d="M5.14105 10.0293C4.04105 10.0293 3.14105 10.9293 3.14105 12.0293C3.14105 13.1293 4.04105 14.0293 5.14105 14.0293C6.24105 14.0293 7.14105 13.1293 7.14105 12.0293C7.14105 10.9293 6.24105 10.0293 5.14105 10.0293ZM19.1411 10.0293C18.0411 10.0293 17.1411 10.9293 17.1411 12.0293C17.1411 13.1293 18.0411 14.0293 19.1411 14.0293C20.2411 14.0293 21.1411 13.1293 21.1411 12.0293C21.1411 10.9293 20.2411 10.0293 19.1411 10.0293ZM12.1411 10.0293C11.0411 10.0293 10.1411 10.9293 10.1411 12.0293C10.1411 13.1293 11.0411 14.0293 12.1411 14.0293C13.2411 14.0293 14.1411 13.1293 14.1411 12.0293C14.1411 10.9293 13.2411 10.0293 12.1411 10.0293Z" fill="#CFD6E0"/>
</g>
</svg>
