<svg width="25" height="25" viewBox="0 0 25 25" fill="none" xmlns="http://www.w3.org/2000/svg">
<g id="f7:person-2" clip-path="url(#clip0_15_569)">
<path id="Vector" d="M16.5826 12.5573C18.6338 12.5573 20.3052 10.7303 20.3052 8.5073C20.3052 6.30958 18.6423 4.56873 16.5826 4.56873C14.5401 4.56873 12.8596 6.3353 12.8596 8.52444C12.8682 10.7389 14.5401 12.5573 16.5826 12.5573ZM6.6552 12.7467C8.43035 12.7467 9.88663 11.1524 9.88663 9.19644C9.88663 7.2833 8.44749 5.74087 6.6552 5.74087C4.88006 5.74087 3.4152 7.30944 3.42377 9.21358C3.43235 11.1614 4.88006 12.7467 6.6552 12.7467ZM16.5826 11.2562C15.3243 11.2562 14.2469 10.0497 14.2469 8.52444C14.2469 7.02444 15.3072 5.8703 16.5826 5.8703C17.8666 5.8703 18.9179 7.00773 18.9179 8.50687C18.9179 10.0326 17.8581 11.2562 16.5826 11.2562ZM6.6552 11.4627C5.60392 11.4627 4.70777 10.4547 4.70777 9.21358C4.70777 7.99858 5.59492 7.02487 6.6552 7.02487C7.74077 7.02487 8.6112 7.98144 8.6112 9.19644C8.6112 10.4547 7.71506 11.4627 6.6552 11.4627ZM1.86377 20.6492H8.62877C8.21477 20.4164 7.89592 19.8992 7.95635 19.3737H1.64863C1.47635 19.3737 1.3902 19.3052 1.3902 19.141C1.3902 17.0042 3.82877 15.0049 6.64706 15.0049C7.73263 15.0049 8.70634 15.2633 9.54249 15.7544C9.81967 15.4031 10.1479 15.0953 10.5162 14.8412C9.40449 14.1083 8.06906 13.7294 6.64706 13.7294C3.03592 13.7294 0.105774 16.3489 0.105774 19.2186C0.105774 20.1752 0.691631 20.6492 1.86377 20.6492ZM11.1706 20.6492H21.9946C23.4248 20.6492 24.1058 20.2184 24.1058 19.2704C24.1058 17.0127 21.2532 13.7462 16.5826 13.7462C11.9031 13.7462 9.05092 17.0127 9.05092 19.2704C9.05092 20.2184 9.73149 20.6492 11.1706 20.6492ZM10.7571 19.348C10.5329 19.348 10.4382 19.288 10.4382 19.1067C10.4382 17.6933 12.6269 15.0482 16.5826 15.0482C20.5298 15.0482 22.7181 17.6933 22.7181 19.1067C22.7181 19.2876 22.6323 19.348 22.4078 19.348H10.7571Z" fill="#CFD6E0"/>
</g>
<defs>
<clipPath id="clip0_15_569">
<rect width="24" height="24" fill="white" transform="translate(0.105774 0.0292969)"/>
</clipPath>
</defs>
</svg>
