<svg width="25" height="24" viewBox="0 0 25 24" fill="none" xmlns="http://www.w3.org/2000/svg">
<g id="octicon:person-16">
<path id="Vector" d="M16.3415 12.1093C17.8188 12.8067 19.0784 13.893 19.9853 15.2518C20.8922 16.6105 21.4122 18.1905 21.4895 19.8223C21.4998 19.9718 21.4801 20.1218 21.4316 20.2636C21.3832 20.4054 21.3069 20.536 21.2072 20.6479C21.1075 20.7598 20.9865 20.8506 20.8513 20.9151C20.7161 20.9796 20.5693 21.0164 20.4196 21.0234C20.27 21.0304 20.1204 21.0074 19.9798 20.9558C19.8391 20.9042 19.7102 20.8251 19.6005 20.723C19.4909 20.6209 19.4027 20.4979 19.3412 20.3613C19.2797 20.2246 19.2462 20.0771 19.2425 19.9273C19.1607 18.1941 18.4146 16.5589 17.1591 15.3613C15.9036 14.1636 14.2351 13.4954 12.5 13.4954C10.7648 13.4954 9.09633 14.1636 7.84083 15.3613C6.58532 16.5589 5.83925 18.1941 5.75747 19.9273C5.73727 20.2207 5.60299 20.4945 5.3834 20.6901C5.16381 20.8857 4.87637 20.9875 4.58262 20.9738C4.28887 20.9601 4.01218 20.8319 3.81178 20.6166C3.61139 20.4014 3.50323 20.1163 3.51047 19.8223C3.58762 18.1907 4.10736 16.6108 5.01399 15.252C5.92062 13.8933 7.17995 12.8069 8.65697 12.1093C7.71049 11.3198 7.03017 10.258 6.70855 9.06818C6.38693 7.87837 6.43963 6.61837 6.85947 5.45957C7.27931 4.30077 8.04592 3.29942 9.05502 2.59174C10.0641 1.88406 11.2667 1.50439 12.4992 1.50439C13.7317 1.50439 14.9343 1.88406 15.9434 2.59174C16.9525 3.29942 17.7191 4.30077 18.139 5.45957C18.5588 6.61837 18.6115 7.87837 18.2899 9.06818C17.9683 10.258 17.288 11.3198 16.3415 12.1093ZM16.25 7.49982C16.25 6.50525 15.8549 5.55143 15.1516 4.84817C14.4484 4.1449 13.4945 3.74982 12.5 3.74982C11.5054 3.74982 10.5516 4.1449 9.84832 4.84817C9.14506 5.55143 8.74997 6.50525 8.74997 7.49982C8.74997 8.49438 9.14506 9.4482 9.84832 10.1515C10.5516 10.8547 11.5054 11.2498 12.5 11.2498C13.4945 11.2498 14.4484 10.8547 15.1516 10.1515C15.8549 9.4482 16.25 8.49438 16.25 7.49982Z" fill="#B3B3B3"/>
</g>
</svg>
